<?xml version="1.0" encoding="UTF-8" standalone="no"?>
<!DOCTYPE svg PUBLIC "-//W3C//DTD SVG 1.1//EN"
 "http://www.w3.org/Graphics/SVG/1.1/DTD/svg11.dtd">
<!-- Generated by graphviz version 2.26.3 (20100126.1600)
 -->
<!-- Title: G Pages: 1 -->
<svg width="360pt" height="292pt"
 viewBox="0.00 0.00 360.00 292.00" xmlns="http://www.w3.org/2000/svg" xmlns:xlink="http://www.w3.org/1999/xlink">
<g id="graph1" class="graph" transform="scale(1 1) rotate(0) translate(4 288)">
<title>G</title>
<polygon fill="white" stroke="white" points="-4,5 -4,-288 357,-288 357,5 -4,5"/>
<g id="graph2" class="cluster"><title>cluster_</title>
<polyline fill="none" stroke="gray" points="228,-8 332,-8 "/>
<path fill="none" stroke="gray" d="M332,-8C338,-8 344,-14 344,-20"/>
<polyline fill="none" stroke="gray" points="344,-20 344,-264 "/>
<path fill="none" stroke="gray" d="M344,-264C344,-270 338,-276 332,-276"/>
<polyline fill="none" stroke="gray" points="332,-276 228,-276 "/>
<path fill="none" stroke="gray" d="M228,-276C222,-276 216,-270 216,-264"/>
<polyline fill="none" stroke="gray" points="216,-264 216,-20 "/>
<path fill="none" stroke="gray" d="M216,-20C216,-14 222,-8 228,-8"/>
</g>
<!-- \\Question_model -->
<g id="node2" class="node"><title>\\Question_model</title>
<a xlink:href="models.question_model.html" xlink:title="Question_model" target="_parent">
<polygon fill="none" stroke="black" points="335,-268 225,-268 225,-232 335,-232 335,-268"/>
<text text-anchor="middle" x="280" y="-247.1" font-family="Courier,monospace" font-size="11.00">Question_model</text>
</a>
</g>
<!-- CI_Model -->
<g id="node8" class="node"><title>CI_Model</title>
<ellipse fill="none" stroke="black" cx="76" cy="-196" rx="55.8614" ry="18.3848"/>
<text text-anchor="middle" x="76" y="-192.4" font-family="Times Roman,serif" font-size="14.00" fill="gray">CI_Model</text>
</g>
<!-- \\Question_model&#45;&gt;CI_Model -->
<g id="edge3" class="edge"><title>\\Question_model&#45;&gt;CI_Model</title>
<path fill="none" stroke="black" d="M224.256,-235.244C194.708,-227.423 158.59,-217.862 129.401,-210.136"/>
<polygon fill="none" stroke="black" points="129.951,-206.661 119.388,-207.485 128.159,-213.428 129.951,-206.661"/>
</g>
<!-- \\Comment_model -->
<g id="node3" class="node"><title>\\Comment_model</title>
<a xlink:href="models.comment_model.html" xlink:title="Comment_model" target="_parent">
<polygon fill="none" stroke="black" points="332,-214 228,-214 228,-178 332,-178 332,-214"/>
<text text-anchor="middle" x="280" y="-193.1" font-family="Courier,monospace" font-size="11.00">Comment_model</text>
</a>
</g>
<!-- \\Comment_model&#45;&gt;CI_Model -->
<g id="edge5" class="edge"><title>\\Comment_model&#45;&gt;CI_Model</title>
<path fill="none" stroke="black" d="M227.994,-196C201.921,-196 170.057,-196 142.25,-196"/>
<polygon fill="none" stroke="black" points="142.208,-192.5 132.208,-196 142.208,-199.5 142.208,-192.5"/>
</g>
<!-- \\Answer_model -->
<g id="node4" class="node"><title>\\Answer_model</title>
<a xlink:href="models.answer_model.html" xlink:title="Answer_model" target="_parent">
<polygon fill="none" stroke="black" points="329,-160 231,-160 231,-124 329,-124 329,-160"/>
<text text-anchor="middle" x="280" y="-139.1" font-family="Courier,monospace" font-size="11.00">Answer_model</text>
</a>
</g>
<!-- \\Answer_model&#45;&gt;CI_Model -->
<g id="edge7" class="edge"><title>\\Answer_model&#45;&gt;CI_Model</title>
<path fill="none" stroke="black" d="M230.877,-155.003C200.239,-163.113 160.802,-173.552 129.392,-181.867"/>
<polygon fill="none" stroke="black" points="128.269,-178.544 119.497,-184.486 130.06,-185.31 128.269,-178.544"/>
</g>
<!-- \\Main -->
<g id="node5" class="node"><title>\\Main</title>
<a xlink:href="controllers.main.html" xlink:title="Main" target="_parent">
<polygon fill="none" stroke="black" points="307,-106 253,-106 253,-70 307,-70 307,-106"/>
<text text-anchor="middle" x="280" y="-85.1" font-family="Courier,monospace" font-size="11.00">Main</text>
</a>
</g>
<!-- CI_Controller -->
<g id="node12" class="node"><title>CI_Controller</title>
<ellipse fill="none" stroke="black" cx="76" cy="-61" rx="75.1594" ry="18.3848"/>
<text text-anchor="middle" x="76" y="-57.4" font-family="Times Roman,serif" font-size="14.00" fill="gray">CI_Controller</text>
</g>
<!-- \\Main&#45;&gt;CI_Controller -->
<g id="edge9" class="edge"><title>\\Main&#45;&gt;CI_Controller</title>
<path fill="none" stroke="black" d="M252.91,-84.4146C227.361,-81.0331 187.837,-75.802 152.622,-71.1412"/>
<polygon fill="none" stroke="black" points="152.71,-67.6224 142.338,-69.78 151.792,-74.5619 152.71,-67.6224"/>
</g>
<!-- \\Ajax -->
<g id="node6" class="node"><title>\\Ajax</title>
<a xlink:href="controllers.ajax.html" xlink:title="Ajax" target="_parent">
<polygon fill="none" stroke="black" points="307,-52 253,-52 253,-16 307,-16 307,-52"/>
<text text-anchor="middle" x="280" y="-31.1" font-family="Courier,monospace" font-size="11.00">Ajax</text>
</a>
</g>
<!-- \\Ajax&#45;&gt;CI_Controller -->
<g id="edge11" class="edge"><title>\\Ajax&#45;&gt;CI_Controller</title>
<path fill="none" stroke="black" d="M252.91,-37.5854C227.361,-40.9669 187.837,-46.198 152.622,-50.8588"/>
<polygon fill="none" stroke="black" points="151.792,-47.4381 142.338,-52.22 152.71,-54.3776 151.792,-47.4381"/>
</g>
</g>
</svg>
