<?xml version="1.0" encoding="UTF-8" standalone="no"?>
<!DOCTYPE svg PUBLIC "-//W3C//DTD SVG 1.1//EN"
 "http://www.w3.org/Graphics/SVG/1.1/DTD/svg11.dtd">
<!-- Generated by graphviz version 2.26.3 (20100126.1600)
 -->
<!-- Title: G Pages: 1 -->
<svg width="360pt" height="616pt"
 viewBox="0.00 0.00 360.00 616.00" xmlns="http://www.w3.org/2000/svg" xmlns:xlink="http://www.w3.org/1999/xlink">
<g id="graph1" class="graph" transform="scale(1 1) rotate(0) translate(4 612)">
<title>G</title>
<polygon fill="white" stroke="white" points="-4,5 -4,-612 357,-612 357,5 -4,5"/>
<g id="graph2" class="cluster"><title>cluster_</title>
<polyline fill="none" stroke="gray" points="228,-8 332,-8 "/>
<path fill="none" stroke="gray" d="M332,-8C338,-8 344,-14 344,-20"/>
<polyline fill="none" stroke="gray" points="344,-20 344,-588 "/>
<path fill="none" stroke="gray" d="M344,-588C344,-594 338,-600 332,-600"/>
<polyline fill="none" stroke="gray" points="332,-600 228,-600 "/>
<path fill="none" stroke="gray" d="M228,-600C222,-600 216,-594 216,-588"/>
<polyline fill="none" stroke="gray" points="216,-588 216,-20 "/>
<path fill="none" stroke="gray" d="M216,-20C216,-14 222,-8 228,-8"/>
</g>
<!-- \\Question_model -->
<g id="node2" class="node"><title>\\Question_model</title>
<a xlink:href="models.question_model.html" xlink:title="Question_model" target="_parent">
<polygon fill="none" stroke="black" points="335,-592 225,-592 225,-556 335,-556 335,-592"/>
<text text-anchor="middle" x="280" y="-571.1" font-family="Courier,monospace" font-size="11.00">Question_model</text>
</a>
</g>
<!-- CI_Model -->
<g id="node14" class="node"><title>CI_Model</title>
<ellipse fill="none" stroke="black" cx="76" cy="-439" rx="55.8614" ry="18.3848"/>
<text text-anchor="middle" x="76" y="-435.4" font-family="Times Roman,serif" font-size="14.00" fill="gray">CI_Model</text>
</g>
<!-- \\Question_model&#45;&gt;CI_Model -->
<g id="edge3" class="edge"><title>\\Question_model&#45;&gt;CI_Model</title>
<path fill="none" stroke="black" d="M233.168,-555.91C227.273,-553.15 221.416,-550.16 216,-547 173.709,-522.326 129.771,-486.474 102.654,-462.951"/>
<polygon fill="none" stroke="black" points="104.628,-460.027 94.7992,-456.072 100.017,-465.294 104.628,-460.027"/>
</g>
<!-- \\User_model -->
<g id="node3" class="node"><title>\\User_model</title>
<a xlink:href="models.user_model.html" xlink:title="User_model" target="_parent">
<polygon fill="none" stroke="black" points="322,-538 238,-538 238,-502 322,-502 322,-538"/>
<text text-anchor="middle" x="280" y="-517.1" font-family="Courier,monospace" font-size="11.00">User_model</text>
</a>
</g>
<!-- \\User_model&#45;&gt;CI_Model -->
<g id="edge5" class="edge"><title>\\User_model&#45;&gt;CI_Model</title>
<path fill="none" stroke="black" d="M237.731,-503.217C203.595,-489.663 155.678,-470.637 120.866,-456.815"/>
<polygon fill="none" stroke="black" points="122.003,-453.5 111.418,-453.063 119.42,-460.006 122.003,-453.5"/>
</g>
<!-- \\Comment_model -->
<g id="node4" class="node"><title>\\Comment_model</title>
<a xlink:href="models.comment_model.html" xlink:title="Comment_model" target="_parent">
<polygon fill="none" stroke="black" points="332,-484 228,-484 228,-448 332,-448 332,-484"/>
<text text-anchor="middle" x="280" y="-463.1" font-family="Courier,monospace" font-size="11.00">Comment_model</text>
</a>
</g>
<!-- \\Comment_model&#45;&gt;CI_Model -->
<g id="edge7" class="edge"><title>\\Comment_model&#45;&gt;CI_Model</title>
<path fill="none" stroke="black" d="M227.994,-459.117C200.539,-455.483 166.664,-451 137.866,-447.188"/>
<polygon fill="none" stroke="black" points="138.283,-443.713 127.911,-445.871 137.365,-450.652 138.283,-443.713"/>
</g>
<!-- \\Answer_model -->
<g id="node5" class="node"><title>\\Answer_model</title>
<a xlink:href="models.answer_model.html" xlink:title="Answer_model" target="_parent">
<polygon fill="none" stroke="black" points="329,-430 231,-430 231,-394 329,-394 329,-430"/>
<text text-anchor="middle" x="280" y="-409.1" font-family="Courier,monospace" font-size="11.00">Answer_model</text>
</a>
</g>
<!-- \\Answer_model&#45;&gt;CI_Model -->
<g id="edge9" class="edge"><title>\\Answer_model&#45;&gt;CI_Model</title>
<path fill="none" stroke="black" d="M230.877,-418.502C203.035,-422.187 167.928,-426.833 138.18,-430.77"/>
<polygon fill="none" stroke="black" points="137.357,-427.349 127.902,-432.131 138.275,-434.288 137.357,-427.349"/>
</g>
<!-- \\Category_model -->
<g id="node6" class="node"><title>\\Category_model</title>
<a xlink:href="models.category_model.html" xlink:title="Category_model" target="_parent">
<polygon fill="none" stroke="black" points="335,-376 225,-376 225,-340 335,-340 335,-376"/>
<text text-anchor="middle" x="280" y="-355.1" font-family="Courier,monospace" font-size="11.00">Category_model</text>
</a>
</g>
<!-- \\Category_model&#45;&gt;CI_Model -->
<g id="edge11" class="edge"><title>\\Category_model&#45;&gt;CI_Model</title>
<path fill="none" stroke="black" d="M234.472,-376.077C200.592,-389.53 154.573,-407.802 120.855,-421.19"/>
<polygon fill="none" stroke="black" points="119.255,-418.059 111.253,-425.003 121.838,-424.565 119.255,-418.059"/>
</g>
<!-- \\Field_model -->
<g id="node7" class="node"><title>\\Field_model</title>
<a xlink:href="models.field_model.html" xlink:title="Field_model" target="_parent">
<polygon fill="none" stroke="black" points="325,-322 235,-322 235,-286 325,-286 325,-322"/>
<text text-anchor="middle" x="280" y="-301.1" font-family="Courier,monospace" font-size="11.00">Field_model</text>
</a>
</g>
<!-- \\Field_model&#45;&gt;CI_Model -->
<g id="edge13" class="edge"><title>\\Field_model&#45;&gt;CI_Model</title>
<path fill="none" stroke="black" d="M234.188,-321.615C227.95,-324.505 221.729,-327.658 216,-331 173.709,-355.674 129.771,-391.526 102.654,-415.049"/>
<polygon fill="none" stroke="black" points="100.017,-412.706 94.7992,-421.928 104.628,-417.973 100.017,-412.706"/>
</g>
<!-- \\Test -->
<g id="node8" class="node"><title>\\Test</title>
<a xlink:href="controllers.test.html" xlink:title="Test" target="_parent">
<polygon fill="none" stroke="black" points="307,-268 253,-268 253,-232 307,-232 307,-268"/>
<text text-anchor="middle" x="280" y="-247.1" font-family="Courier,monospace" font-size="11.00">Test</text>
</a>
</g>
<!-- CI_Controller -->
<g id="node21" class="node"><title>CI_Controller</title>
<ellipse fill="none" stroke="black" cx="76" cy="-142" rx="75.1594" ry="18.3848"/>
<text text-anchor="middle" x="76" y="-138.4" font-family="Times Roman,serif" font-size="14.00" fill="gray">CI_Controller</text>
</g>
<!-- \\Test&#45;&gt;CI_Controller -->
<g id="edge15" class="edge"><title>\\Test&#45;&gt;CI_Controller</title>
<path fill="none" stroke="black" d="M252.882,-239.439C241.362,-234.728 227.875,-228.911 216,-223 179.48,-204.821 139.323,-181.189 111.418,-164.148"/>
<polygon fill="none" stroke="black" points="113.162,-161.112 102.809,-158.862 109.499,-167.077 113.162,-161.112"/>
</g>
<!-- \\Ajax -->
<g id="node9" class="node"><title>\\Ajax</title>
<a xlink:href="controllers.ajax.html" xlink:title="Ajax" target="_parent">
<polygon fill="none" stroke="black" points="307,-214 253,-214 253,-178 307,-178 307,-214"/>
<text text-anchor="middle" x="280" y="-193.1" font-family="Courier,monospace" font-size="11.00">Ajax</text>
</a>
</g>
<!-- \\Ajax&#45;&gt;CI_Controller -->
<g id="edge17" class="edge"><title>\\Ajax&#45;&gt;CI_Controller</title>
<path fill="none" stroke="black" d="M252.91,-188.829C223.461,-181.034 175.443,-168.323 136.86,-158.11"/>
<polygon fill="none" stroke="black" points="137.326,-154.613 126.763,-155.437 135.534,-161.38 137.326,-154.613"/>
</g>
<!-- \\Util -->
<g id="node10" class="node"><title>\\Util</title>
<a xlink:href="controllers.util.html" xlink:title="Util" target="_parent">
<polygon fill="none" stroke="black" points="307,-160 253,-160 253,-124 307,-124 307,-160"/>
<text text-anchor="middle" x="280" y="-139.1" font-family="Courier,monospace" font-size="11.00">Util</text>
</a>
</g>
<!-- \\Util&#45;&gt;CI_Controller -->
<g id="edge19" class="edge"><title>\\Util&#45;&gt;CI_Controller</title>
<path fill="none" stroke="black" d="M252.91,-142C229.534,-142 194.457,-142 161.687,-142"/>
<polygon fill="none" stroke="black" points="161.607,-138.5 151.607,-142 161.606,-145.5 161.607,-138.5"/>
</g>
<!-- \\Main -->
<g id="node11" class="node"><title>\\Main</title>
<a xlink:href="controllers.main.html" xlink:title="Main" target="_parent">
<polygon fill="none" stroke="black" points="307,-106 253,-106 253,-70 307,-70 307,-106"/>
<text text-anchor="middle" x="280" y="-85.1" font-family="Courier,monospace" font-size="11.00">Main</text>
</a>
</g>
<!-- \\Main&#45;&gt;CI_Controller -->
<g id="edge21" class="edge"><title>\\Main&#45;&gt;CI_Controller</title>
<path fill="none" stroke="black" d="M252.91,-95.1708C223.461,-102.966 175.443,-115.677 136.86,-125.89"/>
<polygon fill="none" stroke="black" points="135.534,-122.62 126.763,-128.563 137.326,-129.387 135.534,-122.62"/>
</g>
<!-- \\User -->
<g id="node12" class="node"><title>\\User</title>
<a xlink:href="controllers.user.html" xlink:title="User" target="_parent">
<polygon fill="none" stroke="black" points="307,-52 253,-52 253,-16 307,-16 307,-52"/>
<text text-anchor="middle" x="280" y="-31.1" font-family="Courier,monospace" font-size="11.00">User</text>
</a>
</g>
<!-- \\User&#45;&gt;CI_Controller -->
<g id="edge23" class="edge"><title>\\User&#45;&gt;CI_Controller</title>
<path fill="none" stroke="black" d="M252.882,-44.5608C241.362,-49.2724 227.875,-55.0887 216,-61 179.48,-79.1789 139.323,-102.811 111.418,-119.852"/>
<polygon fill="none" stroke="black" points="109.499,-116.923 102.809,-125.138 113.162,-122.888 109.499,-116.923"/>
</g>
</g>
</svg>
