<?xml version="1.0" encoding="UTF-8" standalone="no"?>
<!DOCTYPE svg PUBLIC "-//W3C//DTD SVG 1.1//EN"
 "http://www.w3.org/Graphics/SVG/1.1/DTD/svg11.dtd">
<!-- Generated by graphviz version 2.26.3 (20100126.1600)
 -->
<!-- Title: G Pages: 1 -->
<svg width="366pt" height="886pt"
 viewBox="0.00 0.00 366.00 886.00" xmlns="http://www.w3.org/2000/svg" xmlns:xlink="http://www.w3.org/1999/xlink">
<g id="graph1" class="graph" transform="scale(1 1) rotate(0) translate(4 882)">
<title>G</title>
<polygon fill="white" stroke="white" points="-4,5 -4,-882 363,-882 363,5 -4,5"/>
<g id="graph2" class="cluster"><title>cluster_</title>
<polyline fill="none" stroke="gray" points="228,-8 338,-8 "/>
<path fill="none" stroke="gray" d="M338,-8C344,-8 350,-14 350,-20"/>
<polyline fill="none" stroke="gray" points="350,-20 350,-858 "/>
<path fill="none" stroke="gray" d="M350,-858C350,-864 344,-870 338,-870"/>
<polyline fill="none" stroke="gray" points="338,-870 228,-870 "/>
<path fill="none" stroke="gray" d="M228,-870C222,-870 216,-864 216,-858"/>
<polyline fill="none" stroke="gray" points="216,-858 216,-20 "/>
<path fill="none" stroke="gray" d="M216,-20C216,-14 222,-8 228,-8"/>
</g>
<!-- \\Question_model -->
<g id="node2" class="node"><title>\\Question_model</title>
<a xlink:href="models.question_model.html" xlink:title="Question_model" target="_parent">
<polygon fill="none" stroke="black" points="338,-862 228,-862 228,-826 338,-826 338,-862"/>
<text text-anchor="middle" x="283" y="-841.1" font-family="Courier,monospace" font-size="11.00">Question_model</text>
</a>
</g>
<!-- CI_Model -->
<g id="node19" class="node"><title>CI_Model</title>
<ellipse fill="none" stroke="black" cx="76" cy="-682" rx="55.8614" ry="18.3848"/>
<text text-anchor="middle" x="76" y="-678.4" font-family="Times Roman,serif" font-size="14.00" fill="gray">CI_Model</text>
</g>
<!-- \\Question_model&#45;&gt;CI_Model -->
<g id="edge3" class="edge"><title>\\Question_model&#45;&gt;CI_Model</title>
<path fill="none" stroke="black" d="M232.187,-825.977C226.564,-823.27 221.051,-820.274 216,-817 168.089,-785.941 122.387,-737.01 96.8812,-707.369"/>
<polygon fill="none" stroke="black" points="99.3803,-704.905 90.2376,-699.552 94.0462,-709.438 99.3803,-704.905"/>
</g>
<!-- \\User_model -->
<g id="node3" class="node"><title>\\User_model</title>
<a xlink:href="models.user_model.html" xlink:title="User_model" target="_parent">
<polygon fill="none" stroke="black" points="325,-808 241,-808 241,-772 325,-772 325,-808"/>
<text text-anchor="middle" x="283" y="-787.1" font-family="Courier,monospace" font-size="11.00">User_model</text>
</a>
</g>
<!-- \\User_model&#45;&gt;CI_Model -->
<g id="edge5" class="edge"><title>\\User_model&#45;&gt;CI_Model</title>
<path fill="none" stroke="black" d="M240.784,-774.047C232.475,-770.611 223.89,-766.848 216,-763 178.765,-744.839 137.95,-720.708 110.048,-703.52"/>
<polygon fill="none" stroke="black" points="111.807,-700.493 101.463,-698.2 108.119,-706.443 111.807,-700.493"/>
</g>
<!-- \\Field_model -->
<g id="node4" class="node"><title>\\Field_model</title>
<a xlink:href="models.field_model.html" xlink:title="Field_model" target="_parent">
<polygon fill="none" stroke="black" points="328,-754 238,-754 238,-718 328,-718 328,-754"/>
<text text-anchor="middle" x="283" y="-733.1" font-family="Courier,monospace" font-size="11.00">Field_model</text>
</a>
</g>
<!-- \\Field_model&#45;&gt;CI_Model -->
<g id="edge7" class="edge"><title>\\Field_model&#45;&gt;CI_Model</title>
<path fill="none" stroke="black" d="M237.317,-724.083C205.594,-715.807 163.203,-704.749 129.837,-696.044"/>
<polygon fill="none" stroke="black" points="130.353,-692.562 119.794,-693.424 128.586,-699.335 130.353,-692.562"/>
</g>
<!-- \\Category_model -->
<g id="node5" class="node"><title>\\Category_model</title>
<a xlink:href="models.category_model.html" xlink:title="Category_model" target="_parent">
<polygon fill="none" stroke="black" points="338,-700 228,-700 228,-664 338,-664 338,-700"/>
<text text-anchor="middle" x="283" y="-679.1" font-family="Courier,monospace" font-size="11.00">Category_model</text>
</a>
</g>
<!-- \\Category_model&#45;&gt;CI_Model -->
<g id="edge9" class="edge"><title>\\Category_model&#45;&gt;CI_Model</title>
<path fill="none" stroke="black" d="M227.255,-682C201.135,-682 169.817,-682 142.471,-682"/>
<polygon fill="none" stroke="black" points="142.204,-678.5 132.204,-682 142.204,-685.5 142.204,-678.5"/>
</g>
<!-- \\Vote_model -->
<g id="node6" class="node"><title>\\Vote_model</title>
<a xlink:href="models.vote_model.html" xlink:title="Vote_model" target="_parent">
<polygon fill="none" stroke="black" points="325,-646 241,-646 241,-610 325,-610 325,-646"/>
<text text-anchor="middle" x="283" y="-625.1" font-family="Courier,monospace" font-size="11.00">Vote_model</text>
</a>
</g>
<!-- \\Vote_model&#45;&gt;CI_Model -->
<g id="edge11" class="edge"><title>\\Vote_model&#45;&gt;CI_Model</title>
<path fill="none" stroke="black" d="M240.861,-638.993C208.692,-647.385 164.144,-659.006 129.466,-668.052"/>
<polygon fill="none" stroke="black" points="128.299,-664.74 119.506,-670.651 130.066,-671.513 128.299,-664.74"/>
</g>
<!-- \\Comment_model -->
<g id="node7" class="node"><title>\\Comment_model</title>
<a xlink:href="models.comment_model.html" xlink:title="Comment_model" target="_parent">
<polygon fill="none" stroke="black" points="335,-592 231,-592 231,-556 335,-556 335,-592"/>
<text text-anchor="middle" x="283" y="-571.1" font-family="Courier,monospace" font-size="11.00">Comment_model</text>
</a>
</g>
<!-- \\Comment_model&#45;&gt;CI_Model -->
<g id="edge13" class="edge"><title>\\Comment_model&#45;&gt;CI_Model</title>
<path fill="none" stroke="black" d="M235.773,-592.052C229.069,-594.898 222.312,-597.921 216,-601 178.765,-619.161 137.95,-643.292 110.048,-660.48"/>
<polygon fill="none" stroke="black" points="108.119,-657.557 101.463,-665.8 111.807,-663.507 108.119,-657.557"/>
</g>
<!-- \\Answer_model -->
<g id="node8" class="node"><title>\\Answer_model</title>
<a xlink:href="models.answer_model.html" xlink:title="Answer_model" target="_parent">
<polygon fill="none" stroke="black" points="332,-538 234,-538 234,-502 332,-502 332,-538"/>
<text text-anchor="middle" x="283" y="-517.1" font-family="Courier,monospace" font-size="11.00">Answer_model</text>
</a>
</g>
<!-- \\Answer_model&#45;&gt;CI_Model -->
<g id="edge15" class="edge"><title>\\Answer_model&#45;&gt;CI_Model</title>
<path fill="none" stroke="black" d="M233.947,-537.187C227.717,-540.109 221.577,-543.384 216,-547 168.089,-578.059 122.387,-626.99 96.8812,-656.631"/>
<polygon fill="none" stroke="black" points="94.0462,-654.562 90.2376,-664.448 99.3803,-659.095 94.0462,-654.562"/>
</g>
<!-- \\Util -->
<g id="node9" class="node"><title>\\Util</title>
<a xlink:href="controllers.util.html" xlink:title="Util" target="_parent">
<polygon fill="none" stroke="black" points="310,-484 256,-484 256,-448 310,-448 310,-484"/>
<text text-anchor="middle" x="283" y="-463.1" font-family="Courier,monospace" font-size="11.00">Util</text>
</a>
</g>
<!-- CI_Controller -->
<g id="node27" class="node"><title>CI_Controller</title>
<ellipse fill="none" stroke="black" cx="76" cy="-304" rx="75.1594" ry="18.3848"/>
<text text-anchor="middle" x="76" y="-300.4" font-family="Times Roman,serif" font-size="14.00" fill="gray">CI_Controller</text>
</g>
<!-- \\Util&#45;&gt;CI_Controller -->
<g id="edge17" class="edge"><title>\\Util&#45;&gt;CI_Controller</title>
<path fill="none" stroke="black" d="M255.755,-457.707C243.108,-453.199 228.207,-446.913 216,-439 168.348,-408.109 122.881,-359.538 97.2966,-329.852"/>
<polygon fill="none" stroke="black" points="99.769,-327.356 90.6222,-322.01 94.4382,-331.893 99.769,-327.356"/>
</g>
<!-- \\Admin -->
<g id="node10" class="node"><title>\\Admin</title>
<a xlink:href="controllers.admin.html" xlink:title="Admin" target="_parent">
<polygon fill="none" stroke="black" points="310,-430 256,-430 256,-394 310,-394 310,-430"/>
<text text-anchor="middle" x="283" y="-409.1" font-family="Courier,monospace" font-size="11.00">Admin</text>
</a>
</g>
<!-- \\Admin&#45;&gt;CI_Controller -->
<g id="edge19" class="edge"><title>\\Admin&#45;&gt;CI_Controller</title>
<path fill="none" stroke="black" d="M255.887,-402.079C243.541,-397.307 228.85,-391.267 216,-385 179.334,-367.116 139.197,-343.445 111.337,-326.314"/>
<polygon fill="none" stroke="black" points="113.088,-323.282 102.742,-320.997 109.405,-329.235 113.088,-323.282"/>
</g>
<!-- \\Main -->
<g id="node11" class="node"><title>\\Main</title>
<a xlink:href="controllers.main.html" xlink:title="Main" target="_parent">
<polygon fill="none" stroke="black" points="310,-376 256,-376 256,-340 310,-340 310,-376"/>
<text text-anchor="middle" x="283" y="-355.1" font-family="Courier,monospace" font-size="11.00">Main</text>
</a>
</g>
<!-- \\Main&#45;&gt;CI_Controller -->
<g id="edge21" class="edge"><title>\\Main&#45;&gt;CI_Controller</title>
<path fill="none" stroke="black" d="M255.938,-350.94C225.933,-343.113 176.562,-330.234 137.119,-319.944"/>
<polygon fill="none" stroke="black" points="137.882,-316.526 127.322,-317.388 136.115,-323.299 137.882,-316.526"/>
</g>
<!-- \\Edit -->
<g id="node12" class="node"><title>\\Edit</title>
<a xlink:href="controllers.edit.html" xlink:title="Edit" target="_parent">
<polygon fill="none" stroke="black" points="310,-322 256,-322 256,-286 310,-286 310,-322"/>
<text text-anchor="middle" x="283" y="-301.1" font-family="Courier,monospace" font-size="11.00">Edit</text>
</a>
</g>
<!-- \\Edit&#45;&gt;CI_Controller -->
<g id="edge23" class="edge"><title>\\Edit&#45;&gt;CI_Controller</title>
<path fill="none" stroke="black" d="M255.938,-304C232.003,-304 195.746,-304 162.034,-304"/>
<polygon fill="none" stroke="black" points="161.67,-300.5 151.67,-304 161.67,-307.5 161.67,-300.5"/>
</g>
<!-- \\User -->
<g id="node13" class="node"><title>\\User</title>
<a xlink:href="controllers.user.html" xlink:title="User" target="_parent">
<polygon fill="none" stroke="black" points="310,-268 256,-268 256,-232 310,-232 310,-268"/>
<text text-anchor="middle" x="283" y="-247.1" font-family="Courier,monospace" font-size="11.00">User</text>
</a>
</g>
<!-- \\User&#45;&gt;CI_Controller -->
<g id="edge25" class="edge"><title>\\User&#45;&gt;CI_Controller</title>
<path fill="none" stroke="black" d="M255.938,-257.06C225.933,-264.887 176.562,-277.766 137.119,-288.056"/>
<polygon fill="none" stroke="black" points="136.115,-284.701 127.322,-290.612 137.882,-291.474 136.115,-284.701"/>
</g>
<!-- \\Test -->
<g id="node14" class="node"><title>\\Test</title>
<a xlink:href="controllers.test.html" xlink:title="Test" target="_parent">
<polygon fill="none" stroke="black" points="310,-214 256,-214 256,-178 310,-178 310,-214"/>
<text text-anchor="middle" x="283" y="-193.1" font-family="Courier,monospace" font-size="11.00">Test</text>
</a>
</g>
<!-- \\Test&#45;&gt;CI_Controller -->
<g id="edge27" class="edge"><title>\\Test&#45;&gt;CI_Controller</title>
<path fill="none" stroke="black" d="M255.887,-205.921C243.541,-210.693 228.85,-216.733 216,-223 179.334,-240.884 139.197,-264.555 111.337,-281.686"/>
<polygon fill="none" stroke="black" points="109.405,-278.765 102.742,-287.003 113.088,-284.718 109.405,-278.765"/>
</g>
<!-- \\Ajax -->
<g id="node15" class="node"><title>\\Ajax</title>
<a xlink:href="controllers.ajax.html" xlink:title="Ajax" target="_parent">
<polygon fill="none" stroke="black" points="310,-160 256,-160 256,-124 310,-124 310,-160"/>
<text text-anchor="middle" x="283" y="-139.1" font-family="Courier,monospace" font-size="11.00">Ajax</text>
</a>
</g>
<!-- \\Ajax&#45;&gt;CI_Controller -->
<g id="edge29" class="edge"><title>\\Ajax&#45;&gt;CI_Controller</title>
<path fill="none" stroke="black" d="M255.755,-150.293C243.108,-154.801 228.207,-161.087 216,-169 168.348,-199.891 122.881,-248.462 97.2966,-278.148"/>
<polygon fill="none" stroke="black" points="94.4382,-276.107 90.6222,-285.99 99.769,-280.644 94.4382,-276.107"/>
</g>
<!-- \\Textile -->
<g id="node16" class="node"><title>\\Textile</title>
<a xlink:href="helpers.markdown_helper.html" xlink:title="Textile" target="_parent">
<polygon fill="none" stroke="black" points="315,-106 251,-106 251,-70 315,-70 315,-106"/>
<text text-anchor="middle" x="283" y="-85.1" font-family="Courier,monospace" font-size="11.00">Textile</text>
</a>
</g>
<!-- \\Markdown_Parser -->
<g id="node17" class="node"><title>\\Markdown_Parser</title>
<a xlink:href="helpers.markdown_helper.html" xlink:title="Markdown_Parser" target="_parent">
<polygon fill="none" stroke="black" points="342,-52 224,-52 224,-16 342,-16 342,-52"/>
<text text-anchor="middle" x="283" y="-31.1" font-family="Courier,monospace" font-size="11.00">Markdown_Parser</text>
</a>
</g>
</g>
</svg>
