<?xml version="1.0" encoding="UTF-8" standalone="no"?>
<!DOCTYPE svg PUBLIC "-//W3C//DTD SVG 1.1//EN"
 "http://www.w3.org/Graphics/SVG/1.1/DTD/svg11.dtd">
<!-- Generated by graphviz version 2.26.3 (20100126.1600)
 -->
<!-- Title: G Pages: 1 -->
<svg width="360pt" height="562pt"
 viewBox="0.00 0.00 360.00 562.00" xmlns="http://www.w3.org/2000/svg" xmlns:xlink="http://www.w3.org/1999/xlink">
<g id="graph1" class="graph" transform="scale(1 1) rotate(0) translate(4 558)">
<title>G</title>
<polygon fill="white" stroke="white" points="-4,5 -4,-558 357,-558 357,5 -4,5"/>
<g id="graph2" class="cluster"><title>cluster_</title>
<polyline fill="none" stroke="gray" points="228,-8 332,-8 "/>
<path fill="none" stroke="gray" d="M332,-8C338,-8 344,-14 344,-20"/>
<polyline fill="none" stroke="gray" points="344,-20 344,-534 "/>
<path fill="none" stroke="gray" d="M344,-534C344,-540 338,-546 332,-546"/>
<polyline fill="none" stroke="gray" points="332,-546 228,-546 "/>
<path fill="none" stroke="gray" d="M228,-546C222,-546 216,-540 216,-534"/>
<polyline fill="none" stroke="gray" points="216,-534 216,-20 "/>
<path fill="none" stroke="gray" d="M216,-20C216,-14 222,-8 228,-8"/>
</g>
<!-- \\Question_model -->
<g id="node2" class="node"><title>\\Question_model</title>
<a xlink:href="models.question_model.html" xlink:title="Question_model" target="_parent">
<polygon fill="none" stroke="black" points="335,-538 225,-538 225,-502 335,-502 335,-538"/>
<text text-anchor="middle" x="280" y="-517.1" font-family="Courier,monospace" font-size="11.00">Question_model</text>
</a>
</g>
<!-- CI_Model -->
<g id="node13" class="node"><title>CI_Model</title>
<ellipse fill="none" stroke="black" cx="76" cy="-385" rx="55.8614" ry="18.3848"/>
<text text-anchor="middle" x="76" y="-381.4" font-family="Times Roman,serif" font-size="14.00" fill="gray">CI_Model</text>
</g>
<!-- \\Question_model&#45;&gt;CI_Model -->
<g id="edge3" class="edge"><title>\\Question_model&#45;&gt;CI_Model</title>
<path fill="none" stroke="black" d="M233.168,-501.91C227.273,-499.15 221.416,-496.16 216,-493 173.709,-468.326 129.771,-432.474 102.654,-408.951"/>
<polygon fill="none" stroke="black" points="104.628,-406.027 94.7992,-402.072 100.017,-411.294 104.628,-406.027"/>
</g>
<!-- \\User_model -->
<g id="node3" class="node"><title>\\User_model</title>
<a xlink:href="models.user_model.html" xlink:title="User_model" target="_parent">
<polygon fill="none" stroke="black" points="322,-484 238,-484 238,-448 322,-448 322,-484"/>
<text text-anchor="middle" x="280" y="-463.1" font-family="Courier,monospace" font-size="11.00">User_model</text>
</a>
</g>
<!-- \\User_model&#45;&gt;CI_Model -->
<g id="edge5" class="edge"><title>\\User_model&#45;&gt;CI_Model</title>
<path fill="none" stroke="black" d="M237.731,-449.217C203.595,-435.663 155.678,-416.637 120.866,-402.815"/>
<polygon fill="none" stroke="black" points="122.003,-399.5 111.418,-399.063 119.42,-406.006 122.003,-399.5"/>
</g>
<!-- \\Comment_model -->
<g id="node4" class="node"><title>\\Comment_model</title>
<a xlink:href="models.comment_model.html" xlink:title="Comment_model" target="_parent">
<polygon fill="none" stroke="black" points="332,-430 228,-430 228,-394 332,-394 332,-430"/>
<text text-anchor="middle" x="280" y="-409.1" font-family="Courier,monospace" font-size="11.00">Comment_model</text>
</a>
</g>
<!-- \\Comment_model&#45;&gt;CI_Model -->
<g id="edge7" class="edge"><title>\\Comment_model&#45;&gt;CI_Model</title>
<path fill="none" stroke="black" d="M227.994,-405.117C200.539,-401.483 166.664,-397 137.866,-393.188"/>
<polygon fill="none" stroke="black" points="138.283,-389.713 127.911,-391.871 137.365,-396.652 138.283,-389.713"/>
</g>
<!-- \\Answer_model -->
<g id="node5" class="node"><title>\\Answer_model</title>
<a xlink:href="models.answer_model.html" xlink:title="Answer_model" target="_parent">
<polygon fill="none" stroke="black" points="329,-376 231,-376 231,-340 329,-340 329,-376"/>
<text text-anchor="middle" x="280" y="-355.1" font-family="Courier,monospace" font-size="11.00">Answer_model</text>
</a>
</g>
<!-- \\Answer_model&#45;&gt;CI_Model -->
<g id="edge9" class="edge"><title>\\Answer_model&#45;&gt;CI_Model</title>
<path fill="none" stroke="black" d="M230.877,-364.502C203.035,-368.187 167.928,-372.833 138.18,-376.77"/>
<polygon fill="none" stroke="black" points="137.357,-373.349 127.902,-378.131 138.275,-380.288 137.357,-373.349"/>
</g>
<!-- \\Category_model -->
<g id="node6" class="node"><title>\\Category_model</title>
<a xlink:href="models.category_model.html" xlink:title="Category_model" target="_parent">
<polygon fill="none" stroke="black" points="335,-322 225,-322 225,-286 335,-286 335,-322"/>
<text text-anchor="middle" x="280" y="-301.1" font-family="Courier,monospace" font-size="11.00">Category_model</text>
</a>
</g>
<!-- \\Category_model&#45;&gt;CI_Model -->
<g id="edge11" class="edge"><title>\\Category_model&#45;&gt;CI_Model</title>
<path fill="none" stroke="black" d="M234.472,-322.077C200.592,-335.53 154.573,-353.802 120.855,-367.19"/>
<polygon fill="none" stroke="black" points="119.255,-364.059 111.253,-371.003 121.838,-370.565 119.255,-364.059"/>
</g>
<!-- \\Field_model -->
<g id="node7" class="node"><title>\\Field_model</title>
<a xlink:href="models.field_model.html" xlink:title="Field_model" target="_parent">
<polygon fill="none" stroke="black" points="325,-268 235,-268 235,-232 325,-232 325,-268"/>
<text text-anchor="middle" x="280" y="-247.1" font-family="Courier,monospace" font-size="11.00">Field_model</text>
</a>
</g>
<!-- \\Field_model&#45;&gt;CI_Model -->
<g id="edge13" class="edge"><title>\\Field_model&#45;&gt;CI_Model</title>
<path fill="none" stroke="black" d="M234.188,-267.615C227.95,-270.505 221.729,-273.658 216,-277 173.709,-301.674 129.771,-337.526 102.654,-361.049"/>
<polygon fill="none" stroke="black" points="100.017,-358.706 94.7992,-367.928 104.628,-363.973 100.017,-358.706"/>
</g>
<!-- \\Ajax -->
<g id="node8" class="node"><title>\\Ajax</title>
<a xlink:href="controllers.ajax.html" xlink:title="Ajax" target="_parent">
<polygon fill="none" stroke="black" points="307,-214 253,-214 253,-178 307,-178 307,-214"/>
<text text-anchor="middle" x="280" y="-193.1" font-family="Courier,monospace" font-size="11.00">Ajax</text>
</a>
</g>
<!-- CI_Controller -->
<g id="node20" class="node"><title>CI_Controller</title>
<ellipse fill="none" stroke="black" cx="76" cy="-115" rx="75.1594" ry="18.3848"/>
<text text-anchor="middle" x="76" y="-111.4" font-family="Times Roman,serif" font-size="14.00" fill="gray">CI_Controller</text>
</g>
<!-- \\Ajax&#45;&gt;CI_Controller -->
<g id="edge15" class="edge"><title>\\Ajax&#45;&gt;CI_Controller</title>
<path fill="none" stroke="black" d="M252.91,-185.244C220.2,-172.256 164.582,-150.172 124.429,-134.229"/>
<polygon fill="none" stroke="black" points="125.676,-130.958 115.09,-130.521 123.093,-137.464 125.676,-130.958"/>
</g>
<!-- \\Util -->
<g id="node9" class="node"><title>\\Util</title>
<a xlink:href="controllers.util.html" xlink:title="Util" target="_parent">
<polygon fill="none" stroke="black" points="307,-160 253,-160 253,-124 307,-124 307,-160"/>
<text text-anchor="middle" x="280" y="-139.1" font-family="Courier,monospace" font-size="11.00">Util</text>
</a>
</g>
<!-- \\Util&#45;&gt;CI_Controller -->
<g id="edge17" class="edge"><title>\\Util&#45;&gt;CI_Controller</title>
<path fill="none" stroke="black" d="M252.91,-138.415C227.361,-135.033 187.837,-129.802 152.622,-125.141"/>
<polygon fill="none" stroke="black" points="152.71,-121.622 142.338,-123.78 151.792,-128.562 152.71,-121.622"/>
</g>
<!-- \\Main -->
<g id="node10" class="node"><title>\\Main</title>
<a xlink:href="controllers.main.html" xlink:title="Main" target="_parent">
<polygon fill="none" stroke="black" points="307,-106 253,-106 253,-70 307,-70 307,-106"/>
<text text-anchor="middle" x="280" y="-85.1" font-family="Courier,monospace" font-size="11.00">Main</text>
</a>
</g>
<!-- \\Main&#45;&gt;CI_Controller -->
<g id="edge19" class="edge"><title>\\Main&#45;&gt;CI_Controller</title>
<path fill="none" stroke="black" d="M252.91,-91.5854C227.361,-94.9669 187.837,-100.198 152.622,-104.859"/>
<polygon fill="none" stroke="black" points="151.792,-101.438 142.338,-106.22 152.71,-108.378 151.792,-101.438"/>
</g>
<!-- \\User -->
<g id="node11" class="node"><title>\\User</title>
<a xlink:href="controllers.user.html" xlink:title="User" target="_parent">
<polygon fill="none" stroke="black" points="307,-52 253,-52 253,-16 307,-16 307,-52"/>
<text text-anchor="middle" x="280" y="-31.1" font-family="Courier,monospace" font-size="11.00">User</text>
</a>
</g>
<!-- \\User&#45;&gt;CI_Controller -->
<g id="edge21" class="edge"><title>\\User&#45;&gt;CI_Controller</title>
<path fill="none" stroke="black" d="M252.91,-44.7562C220.2,-57.7441 164.582,-79.8276 124.429,-95.7708"/>
<polygon fill="none" stroke="black" points="123.093,-92.5356 115.09,-99.479 125.676,-99.0415 123.093,-92.5356"/>
</g>
</g>
</svg>
