<?xml version="1.0" encoding="UTF-8" standalone="no"?>
<!DOCTYPE svg PUBLIC "-//W3C//DTD SVG 1.1//EN"
 "http://www.w3.org/Graphics/SVG/1.1/DTD/svg11.dtd">
<!-- Generated by graphviz version 2.26.3 (20100126.1600)
 -->
<!-- Title: G Pages: 1 -->
<svg width="360pt" height="778pt"
 viewBox="0.00 0.00 360.00 778.00" xmlns="http://www.w3.org/2000/svg" xmlns:xlink="http://www.w3.org/1999/xlink">
<g id="graph1" class="graph" transform="scale(1 1) rotate(0) translate(4 774)">
<title>G</title>
<polygon fill="white" stroke="white" points="-4,5 -4,-774 357,-774 357,5 -4,5"/>
<g id="graph2" class="cluster"><title>cluster_</title>
<polyline fill="none" stroke="gray" points="228,-8 332,-8 "/>
<path fill="none" stroke="gray" d="M332,-8C338,-8 344,-14 344,-20"/>
<polyline fill="none" stroke="gray" points="344,-20 344,-750 "/>
<path fill="none" stroke="gray" d="M344,-750C344,-756 338,-762 332,-762"/>
<polyline fill="none" stroke="gray" points="332,-762 228,-762 "/>
<path fill="none" stroke="gray" d="M228,-762C222,-762 216,-756 216,-750"/>
<polyline fill="none" stroke="gray" points="216,-750 216,-20 "/>
<path fill="none" stroke="gray" d="M216,-20C216,-14 222,-8 228,-8"/>
</g>
<!-- \\Question_model -->
<g id="node2" class="node"><title>\\Question_model</title>
<a xlink:href="models.question_model.html" xlink:title="Question_model" target="_parent">
<polygon fill="none" stroke="black" points="335,-754 225,-754 225,-718 335,-718 335,-754"/>
<text text-anchor="middle" x="280" y="-733.1" font-family="Courier,monospace" font-size="11.00">Question_model</text>
</a>
</g>
<!-- CI_Model -->
<g id="node17" class="node"><title>CI_Model</title>
<ellipse fill="none" stroke="black" cx="76" cy="-574" rx="55.8614" ry="18.3848"/>
<text text-anchor="middle" x="76" y="-570.4" font-family="Times Roman,serif" font-size="14.00" fill="gray">CI_Model</text>
</g>
<!-- \\Question_model&#45;&gt;CI_Model -->
<g id="edge3" class="edge"><title>\\Question_model&#45;&gt;CI_Model</title>
<path fill="none" stroke="black" d="M231.811,-717.972C226.321,-715.252 220.932,-712.254 216,-709 168.341,-677.556 122.559,-628.748 96.9684,-599.236"/>
<polygon fill="none" stroke="black" points="99.4655,-596.771 90.3013,-591.454 94.1496,-601.325 99.4655,-596.771"/>
</g>
<!-- \\User_model -->
<g id="node3" class="node"><title>\\User_model</title>
<a xlink:href="models.user_model.html" xlink:title="User_model" target="_parent">
<polygon fill="none" stroke="black" points="322,-700 238,-700 238,-664 322,-664 322,-700"/>
<text text-anchor="middle" x="280" y="-679.1" font-family="Courier,monospace" font-size="11.00">User_model</text>
</a>
</g>
<!-- \\User_model&#45;&gt;CI_Model -->
<g id="edge5" class="edge"><title>\\User_model&#45;&gt;CI_Model</title>
<path fill="none" stroke="black" d="M237.66,-665.023C230.364,-661.846 222.909,-658.439 216,-655 178.913,-636.539 138.075,-612.454 110.127,-595.359"/>
<polygon fill="none" stroke="black" points="111.879,-592.327 101.527,-590.07 108.212,-598.29 111.879,-592.327"/>
</g>
<!-- \\Field_model -->
<g id="node4" class="node"><title>\\Field_model</title>
<a xlink:href="models.field_model.html" xlink:title="Field_model" target="_parent">
<polygon fill="none" stroke="black" points="325,-646 235,-646 235,-610 325,-610 325,-646"/>
<text text-anchor="middle" x="280" y="-625.1" font-family="Courier,monospace" font-size="11.00">Field_model</text>
</a>
</g>
<!-- \\Field_model&#45;&gt;CI_Model -->
<g id="edge7" class="edge"><title>\\Field_model&#45;&gt;CI_Model</title>
<path fill="none" stroke="black" d="M234.472,-615.949C203.291,-607.695 161.829,-596.719 129.136,-588.065"/>
<polygon fill="none" stroke="black" points="129.856,-584.635 119.293,-585.46 128.064,-591.402 129.856,-584.635"/>
</g>
<!-- \\Category_model -->
<g id="node5" class="node"><title>\\Category_model</title>
<a xlink:href="models.category_model.html" xlink:title="Category_model" target="_parent">
<polygon fill="none" stroke="black" points="335,-592 225,-592 225,-556 335,-556 335,-592"/>
<text text-anchor="middle" x="280" y="-571.1" font-family="Courier,monospace" font-size="11.00">Category_model</text>
</a>
</g>
<!-- \\Category_model&#45;&gt;CI_Model -->
<g id="edge9" class="edge"><title>\\Category_model&#45;&gt;CI_Model</title>
<path fill="none" stroke="black" d="M224.256,-574C198.949,-574 168.822,-574 142.356,-574"/>
<polygon fill="none" stroke="black" points="142.031,-570.5 132.031,-574 142.031,-577.5 142.031,-570.5"/>
</g>
<!-- \\Vote_model -->
<g id="node6" class="node"><title>\\Vote_model</title>
<a xlink:href="models.vote_model.html" xlink:title="Vote_model" target="_parent">
<polygon fill="none" stroke="black" points="322,-538 238,-538 238,-502 322,-502 322,-538"/>
<text text-anchor="middle" x="280" y="-517.1" font-family="Courier,monospace" font-size="11.00">Vote_model</text>
</a>
</g>
<!-- \\Vote_model&#45;&gt;CI_Model -->
<g id="edge11" class="edge"><title>\\Vote_model&#45;&gt;CI_Model</title>
<path fill="none" stroke="black" d="M237.731,-531.189C206.184,-539.54 162.867,-551.006 129.001,-559.97"/>
<polygon fill="none" stroke="black" points="128.04,-556.604 119.269,-562.546 129.832,-563.371 128.04,-556.604"/>
</g>
<!-- \\Comment_model -->
<g id="node7" class="node"><title>\\Comment_model</title>
<a xlink:href="models.comment_model.html" xlink:title="Comment_model" target="_parent">
<polygon fill="none" stroke="black" points="332,-484 228,-484 228,-448 332,-448 332,-484"/>
<text text-anchor="middle" x="280" y="-463.1" font-family="Courier,monospace" font-size="11.00">Comment_model</text>
</a>
</g>
<!-- \\Comment_model&#45;&gt;CI_Model -->
<g id="edge13" class="edge"><title>\\Comment_model&#45;&gt;CI_Model</title>
<path fill="none" stroke="black" d="M235.261,-484.028C228.74,-486.899 222.154,-489.937 216,-493 178.913,-511.461 138.075,-535.546 110.127,-552.641"/>
<polygon fill="none" stroke="black" points="108.212,-549.71 101.527,-557.93 111.879,-555.673 108.212,-549.71"/>
</g>
<!-- \\Answer_model -->
<g id="node8" class="node"><title>\\Answer_model</title>
<a xlink:href="models.answer_model.html" xlink:title="Answer_model" target="_parent">
<polygon fill="none" stroke="black" points="329,-430 231,-430 231,-394 329,-394 329,-430"/>
<text text-anchor="middle" x="280" y="-409.1" font-family="Courier,monospace" font-size="11.00">Answer_model</text>
</a>
</g>
<!-- \\Answer_model&#45;&gt;CI_Model -->
<g id="edge15" class="edge"><title>\\Answer_model&#45;&gt;CI_Model</title>
<path fill="none" stroke="black" d="M231.811,-430.028C226.321,-432.748 220.932,-435.746 216,-439 168.341,-470.444 122.559,-519.252 96.9684,-548.764"/>
<polygon fill="none" stroke="black" points="94.1496,-546.675 90.3013,-556.546 99.4655,-551.229 94.1496,-546.675"/>
</g>
<!-- \\Util -->
<g id="node9" class="node"><title>\\Util</title>
<a xlink:href="controllers.util.html" xlink:title="Util" target="_parent">
<polygon fill="none" stroke="black" points="307,-376 253,-376 253,-340 307,-340 307,-376"/>
<text text-anchor="middle" x="280" y="-355.1" font-family="Courier,monospace" font-size="11.00">Util</text>
</a>
</g>
<!-- CI_Controller -->
<g id="node25" class="node"><title>CI_Controller</title>
<ellipse fill="none" stroke="black" cx="76" cy="-196" rx="75.1594" ry="18.3848"/>
<text text-anchor="middle" x="76" y="-192.4" font-family="Times Roman,serif" font-size="14.00" fill="gray">CI_Controller</text>
</g>
<!-- \\Util&#45;&gt;CI_Controller -->
<g id="edge17" class="edge"><title>\\Util&#45;&gt;CI_Controller</title>
<path fill="none" stroke="black" d="M252.733,-349.042C240.933,-344.536 227.274,-338.438 216,-331 168.599,-299.726 123.054,-251.275 97.3851,-221.716"/>
<polygon fill="none" stroke="black" points="99.8554,-219.22 90.6874,-213.91 94.5428,-223.779 99.8554,-219.22"/>
</g>
<!-- \\Admin -->
<g id="node10" class="node"><title>\\Admin</title>
<a xlink:href="controllers.admin.html" xlink:title="Admin" target="_parent">
<polygon fill="none" stroke="black" points="307,-322 253,-322 253,-286 307,-286 307,-322"/>
<text text-anchor="middle" x="280" y="-301.1" font-family="Courier,monospace" font-size="11.00">Admin</text>
</a>
</g>
<!-- \\Admin&#45;&gt;CI_Controller -->
<g id="edge19" class="edge"><title>\\Admin&#45;&gt;CI_Controller</title>
<path fill="none" stroke="black" d="M252.882,-293.439C241.362,-288.728 227.875,-282.911 216,-277 179.48,-258.821 139.323,-235.189 111.418,-218.148"/>
<polygon fill="none" stroke="black" points="113.162,-215.112 102.809,-212.862 109.499,-221.077 113.162,-215.112"/>
</g>
<!-- \\Main -->
<g id="node11" class="node"><title>\\Main</title>
<a xlink:href="controllers.main.html" xlink:title="Main" target="_parent">
<polygon fill="none" stroke="black" points="307,-268 253,-268 253,-232 307,-232 307,-268"/>
<text text-anchor="middle" x="280" y="-247.1" font-family="Courier,monospace" font-size="11.00">Main</text>
</a>
</g>
<!-- \\Main&#45;&gt;CI_Controller -->
<g id="edge21" class="edge"><title>\\Main&#45;&gt;CI_Controller</title>
<path fill="none" stroke="black" d="M252.91,-242.829C223.461,-235.034 175.443,-222.323 136.86,-212.11"/>
<polygon fill="none" stroke="black" points="137.326,-208.613 126.763,-209.437 135.534,-215.38 137.326,-208.613"/>
</g>
<!-- \\Edit -->
<g id="node12" class="node"><title>\\Edit</title>
<a xlink:href="controllers.edit.html" xlink:title="Edit" target="_parent">
<polygon fill="none" stroke="black" points="307,-214 253,-214 253,-178 307,-178 307,-214"/>
<text text-anchor="middle" x="280" y="-193.1" font-family="Courier,monospace" font-size="11.00">Edit</text>
</a>
</g>
<!-- \\Edit&#45;&gt;CI_Controller -->
<g id="edge23" class="edge"><title>\\Edit&#45;&gt;CI_Controller</title>
<path fill="none" stroke="black" d="M252.91,-196C229.534,-196 194.457,-196 161.687,-196"/>
<polygon fill="none" stroke="black" points="161.607,-192.5 151.607,-196 161.606,-199.5 161.607,-192.5"/>
</g>
<!-- \\User -->
<g id="node13" class="node"><title>\\User</title>
<a xlink:href="controllers.user.html" xlink:title="User" target="_parent">
<polygon fill="none" stroke="black" points="307,-160 253,-160 253,-124 307,-124 307,-160"/>
<text text-anchor="middle" x="280" y="-139.1" font-family="Courier,monospace" font-size="11.00">User</text>
</a>
</g>
<!-- \\User&#45;&gt;CI_Controller -->
<g id="edge25" class="edge"><title>\\User&#45;&gt;CI_Controller</title>
<path fill="none" stroke="black" d="M252.91,-149.171C223.461,-156.966 175.443,-169.677 136.86,-179.89"/>
<polygon fill="none" stroke="black" points="135.534,-176.62 126.763,-182.563 137.326,-183.387 135.534,-176.62"/>
</g>
<!-- \\Test -->
<g id="node14" class="node"><title>\\Test</title>
<a xlink:href="controllers.test.html" xlink:title="Test" target="_parent">
<polygon fill="none" stroke="black" points="307,-106 253,-106 253,-70 307,-70 307,-106"/>
<text text-anchor="middle" x="280" y="-85.1" font-family="Courier,monospace" font-size="11.00">Test</text>
</a>
</g>
<!-- \\Test&#45;&gt;CI_Controller -->
<g id="edge27" class="edge"><title>\\Test&#45;&gt;CI_Controller</title>
<path fill="none" stroke="black" d="M252.882,-98.5608C241.362,-103.272 227.875,-109.089 216,-115 179.48,-133.179 139.323,-156.811 111.418,-173.852"/>
<polygon fill="none" stroke="black" points="109.499,-170.923 102.809,-179.138 113.162,-176.888 109.499,-170.923"/>
</g>
<!-- \\Ajax -->
<g id="node15" class="node"><title>\\Ajax</title>
<a xlink:href="controllers.ajax.html" xlink:title="Ajax" target="_parent">
<polygon fill="none" stroke="black" points="307,-52 253,-52 253,-16 307,-16 307,-52"/>
<text text-anchor="middle" x="280" y="-31.1" font-family="Courier,monospace" font-size="11.00">Ajax</text>
</a>
</g>
<!-- \\Ajax&#45;&gt;CI_Controller -->
<g id="edge29" class="edge"><title>\\Ajax&#45;&gt;CI_Controller</title>
<path fill="none" stroke="black" d="M252.733,-42.9575C240.933,-47.464 227.274,-53.5618 216,-61 168.599,-92.2743 123.054,-140.725 97.3851,-170.284"/>
<polygon fill="none" stroke="black" points="94.5428,-168.221 90.6874,-178.09 99.8554,-172.78 94.5428,-168.221"/>
</g>
</g>
</svg>
