<?xml version="1.0" encoding="UTF-8" standalone="no"?>
<!DOCTYPE svg PUBLIC "-//W3C//DTD SVG 1.1//EN"
 "http://www.w3.org/Graphics/SVG/1.1/DTD/svg11.dtd">
<!-- Generated by graphviz version 2.26.3 (20100126.1600)
 -->
<!-- Title: G Pages: 1 -->
<svg width="360pt" height="508pt"
 viewBox="0.00 0.00 360.00 508.00" xmlns="http://www.w3.org/2000/svg" xmlns:xlink="http://www.w3.org/1999/xlink">
<g id="graph1" class="graph" transform="scale(1 1) rotate(0) translate(4 504)">
<title>G</title>
<polygon fill="white" stroke="white" points="-4,5 -4,-504 357,-504 357,5 -4,5"/>
<g id="graph2" class="cluster"><title>cluster_</title>
<polyline fill="none" stroke="gray" points="228,-8 332,-8 "/>
<path fill="none" stroke="gray" d="M332,-8C338,-8 344,-14 344,-20"/>
<polyline fill="none" stroke="gray" points="344,-20 344,-480 "/>
<path fill="none" stroke="gray" d="M344,-480C344,-486 338,-492 332,-492"/>
<polyline fill="none" stroke="gray" points="332,-492 228,-492 "/>
<path fill="none" stroke="gray" d="M228,-492C222,-492 216,-486 216,-480"/>
<polyline fill="none" stroke="gray" points="216,-480 216,-20 "/>
<path fill="none" stroke="gray" d="M216,-20C216,-14 222,-8 228,-8"/>
</g>
<!-- \\Question_model -->
<g id="node2" class="node"><title>\\Question_model</title>
<a xlink:href="models.question_model.html" xlink:title="Question_model" target="_parent">
<polygon fill="none" stroke="black" points="335,-484 225,-484 225,-448 335,-448 335,-484"/>
<text text-anchor="middle" x="280" y="-463.1" font-family="Courier,monospace" font-size="11.00">Question_model</text>
</a>
</g>
<!-- CI_Model -->
<g id="node12" class="node"><title>CI_Model</title>
<ellipse fill="none" stroke="black" cx="76" cy="-331" rx="55.8614" ry="18.3848"/>
<text text-anchor="middle" x="76" y="-327.4" font-family="Times Roman,serif" font-size="14.00" fill="gray">CI_Model</text>
</g>
<!-- \\Question_model&#45;&gt;CI_Model -->
<g id="edge3" class="edge"><title>\\Question_model&#45;&gt;CI_Model</title>
<path fill="none" stroke="black" d="M233.168,-447.91C227.273,-445.15 221.416,-442.16 216,-439 173.709,-414.326 129.771,-378.474 102.654,-354.951"/>
<polygon fill="none" stroke="black" points="104.628,-352.027 94.7992,-348.072 100.017,-357.294 104.628,-352.027"/>
</g>
<!-- \\User_model -->
<g id="node3" class="node"><title>\\User_model</title>
<a xlink:href="models.user_model.html" xlink:title="User_model" target="_parent">
<polygon fill="none" stroke="black" points="322,-430 238,-430 238,-394 322,-394 322,-430"/>
<text text-anchor="middle" x="280" y="-409.1" font-family="Courier,monospace" font-size="11.00">User_model</text>
</a>
</g>
<!-- \\User_model&#45;&gt;CI_Model -->
<g id="edge5" class="edge"><title>\\User_model&#45;&gt;CI_Model</title>
<path fill="none" stroke="black" d="M237.731,-395.217C203.595,-381.663 155.678,-362.637 120.866,-348.815"/>
<polygon fill="none" stroke="black" points="122.003,-345.5 111.418,-345.063 119.42,-352.006 122.003,-345.5"/>
</g>
<!-- \\Field_model -->
<g id="node4" class="node"><title>\\Field_model</title>
<a xlink:href="models.field_model.html" xlink:title="Field_model" target="_parent">
<polygon fill="none" stroke="black" points="325,-376 235,-376 235,-340 325,-340 325,-376"/>
<text text-anchor="middle" x="280" y="-355.1" font-family="Courier,monospace" font-size="11.00">Field_model</text>
</a>
</g>
<!-- \\Field_model&#45;&gt;CI_Model -->
<g id="edge7" class="edge"><title>\\Field_model&#45;&gt;CI_Model</title>
<path fill="none" stroke="black" d="M234.472,-351.974C206.092,-348.218 169.195,-343.335 138.145,-339.225"/>
<polygon fill="none" stroke="black" points="138.232,-335.706 127.86,-337.864 137.314,-342.646 138.232,-335.706"/>
</g>
<!-- \\Category_model -->
<g id="node5" class="node"><title>\\Category_model</title>
<a xlink:href="models.category_model.html" xlink:title="Category_model" target="_parent">
<polygon fill="none" stroke="black" points="335,-322 225,-322 225,-286 335,-286 335,-322"/>
<text text-anchor="middle" x="280" y="-301.1" font-family="Courier,monospace" font-size="11.00">Category_model</text>
</a>
</g>
<!-- \\Category_model&#45;&gt;CI_Model -->
<g id="edge9" class="edge"><title>\\Category_model&#45;&gt;CI_Model</title>
<path fill="none" stroke="black" d="M224.256,-311.378C197.464,-314.924 165.27,-319.185 137.738,-322.829"/>
<polygon fill="none" stroke="black" points="137.278,-319.359 127.824,-324.141 138.197,-326.299 137.278,-319.359"/>
</g>
<!-- \\Comment_model -->
<g id="node6" class="node"><title>\\Comment_model</title>
<a xlink:href="models.comment_model.html" xlink:title="Comment_model" target="_parent">
<polygon fill="none" stroke="black" points="332,-268 228,-268 228,-232 332,-232 332,-268"/>
<text text-anchor="middle" x="280" y="-247.1" font-family="Courier,monospace" font-size="11.00">Comment_model</text>
</a>
</g>
<!-- \\Comment_model&#45;&gt;CI_Model -->
<g id="edge11" class="edge"><title>\\Comment_model&#45;&gt;CI_Model</title>
<path fill="none" stroke="black" d="M234.472,-268.077C200.592,-281.53 154.573,-299.802 120.855,-313.19"/>
<polygon fill="none" stroke="black" points="119.255,-310.059 111.253,-317.003 121.838,-316.565 119.255,-310.059"/>
</g>
<!-- \\Answer_model -->
<g id="node7" class="node"><title>\\Answer_model</title>
<a xlink:href="models.answer_model.html" xlink:title="Answer_model" target="_parent">
<polygon fill="none" stroke="black" points="329,-214 231,-214 231,-178 329,-178 329,-214"/>
<text text-anchor="middle" x="280" y="-193.1" font-family="Courier,monospace" font-size="11.00">Answer_model</text>
</a>
</g>
<!-- \\Answer_model&#45;&gt;CI_Model -->
<g id="edge13" class="edge"><title>\\Answer_model&#45;&gt;CI_Model</title>
<path fill="none" stroke="black" d="M233.168,-214.09C227.273,-216.85 221.416,-219.84 216,-223 173.709,-247.674 129.771,-283.526 102.654,-307.049"/>
<polygon fill="none" stroke="black" points="100.017,-304.706 94.7992,-313.928 104.628,-309.973 100.017,-304.706"/>
</g>
<!-- \\Main -->
<g id="node8" class="node"><title>\\Main</title>
<a xlink:href="controllers.main.html" xlink:title="Main" target="_parent">
<polygon fill="none" stroke="black" points="307,-160 253,-160 253,-124 307,-124 307,-160"/>
<text text-anchor="middle" x="280" y="-139.1" font-family="Courier,monospace" font-size="11.00">Main</text>
</a>
</g>
<!-- CI_Controller -->
<g id="node19" class="node"><title>CI_Controller</title>
<ellipse fill="none" stroke="black" cx="76" cy="-88" rx="75.1594" ry="18.3848"/>
<text text-anchor="middle" x="76" y="-84.4" font-family="Times Roman,serif" font-size="14.00" fill="gray">CI_Controller</text>
</g>
<!-- \\Main&#45;&gt;CI_Controller -->
<g id="edge15" class="edge"><title>\\Main&#45;&gt;CI_Controller</title>
<path fill="none" stroke="black" d="M252.91,-134.829C223.461,-127.034 175.443,-114.323 136.86,-104.11"/>
<polygon fill="none" stroke="black" points="137.326,-100.613 126.763,-101.437 135.534,-107.38 137.326,-100.613"/>
</g>
<!-- \\User -->
<g id="node9" class="node"><title>\\User</title>
<a xlink:href="controllers.user.html" xlink:title="User" target="_parent">
<polygon fill="none" stroke="black" points="307,-106 253,-106 253,-70 307,-70 307,-106"/>
<text text-anchor="middle" x="280" y="-85.1" font-family="Courier,monospace" font-size="11.00">User</text>
</a>
</g>
<!-- \\User&#45;&gt;CI_Controller -->
<g id="edge17" class="edge"><title>\\User&#45;&gt;CI_Controller</title>
<path fill="none" stroke="black" d="M252.91,-88C229.534,-88 194.457,-88 161.687,-88"/>
<polygon fill="none" stroke="black" points="161.607,-84.5001 151.607,-88 161.606,-91.5001 161.607,-84.5001"/>
</g>
<!-- \\Ajax -->
<g id="node10" class="node"><title>\\Ajax</title>
<a xlink:href="controllers.ajax.html" xlink:title="Ajax" target="_parent">
<polygon fill="none" stroke="black" points="307,-52 253,-52 253,-16 307,-16 307,-52"/>
<text text-anchor="middle" x="280" y="-31.1" font-family="Courier,monospace" font-size="11.00">Ajax</text>
</a>
</g>
<!-- \\Ajax&#45;&gt;CI_Controller -->
<g id="edge19" class="edge"><title>\\Ajax&#45;&gt;CI_Controller</title>
<path fill="none" stroke="black" d="M252.91,-41.1708C223.461,-48.9663 175.443,-61.6768 136.86,-71.8899"/>
<polygon fill="none" stroke="black" points="135.534,-68.6203 126.763,-74.5628 137.326,-75.3872 135.534,-68.6203"/>
</g>
</g>
</svg>
