<?xml version="1.0" encoding="UTF-8" standalone="no"?>
<!DOCTYPE svg PUBLIC "-//W3C//DTD SVG 1.1//EN"
 "http://www.w3.org/Graphics/SVG/1.1/DTD/svg11.dtd">
<!-- Generated by graphviz version 2.26.3 (20100126.1600)
 -->
<!-- Title: G Pages: 1 -->
<svg width="366pt" height="832pt"
 viewBox="0.00 0.00 366.00 832.00" xmlns="http://www.w3.org/2000/svg" xmlns:xlink="http://www.w3.org/1999/xlink">
<g id="graph1" class="graph" transform="scale(1 1) rotate(0) translate(4 828)">
<title>G</title>
<polygon fill="white" stroke="white" points="-4,5 -4,-828 363,-828 363,5 -4,5"/>
<g id="graph2" class="cluster"><title>cluster_</title>
<polyline fill="none" stroke="gray" points="228,-8 338,-8 "/>
<path fill="none" stroke="gray" d="M338,-8C344,-8 350,-14 350,-20"/>
<polyline fill="none" stroke="gray" points="350,-20 350,-804 "/>
<path fill="none" stroke="gray" d="M350,-804C350,-810 344,-816 338,-816"/>
<polyline fill="none" stroke="gray" points="338,-816 228,-816 "/>
<path fill="none" stroke="gray" d="M228,-816C222,-816 216,-810 216,-804"/>
<polyline fill="none" stroke="gray" points="216,-804 216,-20 "/>
<path fill="none" stroke="gray" d="M216,-20C216,-14 222,-8 228,-8"/>
</g>
<!-- \\Category_model -->
<g id="node2" class="node"><title>\\Category_model</title>
<a xlink:href="models.category_model.html" xlink:title="Category_model" target="_parent">
<polygon fill="none" stroke="black" points="338,-808 228,-808 228,-772 338,-772 338,-808"/>
<text text-anchor="middle" x="283" y="-787.1" font-family="Courier,monospace" font-size="11.00">Category_model</text>
</a>
</g>
<!-- CI_Model -->
<g id="node18" class="node"><title>CI_Model</title>
<ellipse fill="none" stroke="black" cx="76" cy="-628" rx="55.8614" ry="18.3848"/>
<text text-anchor="middle" x="76" y="-624.4" font-family="Times Roman,serif" font-size="14.00" fill="gray">CI_Model</text>
</g>
<!-- \\Category_model&#45;&gt;CI_Model -->
<g id="edge3" class="edge"><title>\\Category_model&#45;&gt;CI_Model</title>
<path fill="none" stroke="black" d="M232.187,-771.977C226.564,-769.27 221.051,-766.274 216,-763 168.089,-731.941 122.387,-683.01 96.8812,-653.369"/>
<polygon fill="none" stroke="black" points="99.3803,-650.905 90.2376,-645.552 94.0462,-655.438 99.3803,-650.905"/>
</g>
<!-- \\Answer_model -->
<g id="node3" class="node"><title>\\Answer_model</title>
<a xlink:href="models.answer_model.html" xlink:title="Answer_model" target="_parent">
<polygon fill="none" stroke="black" points="332,-754 234,-754 234,-718 332,-718 332,-754"/>
<text text-anchor="middle" x="283" y="-733.1" font-family="Courier,monospace" font-size="11.00">Answer_model</text>
</a>
</g>
<!-- \\Answer_model&#45;&gt;CI_Model -->
<g id="edge5" class="edge"><title>\\Answer_model&#45;&gt;CI_Model</title>
<path fill="none" stroke="black" d="M235.773,-717.948C229.069,-715.102 222.312,-712.079 216,-709 178.765,-690.839 137.95,-666.708 110.048,-649.52"/>
<polygon fill="none" stroke="black" points="111.807,-646.493 101.463,-644.2 108.119,-652.443 111.807,-646.493"/>
</g>
<!-- \\Comment_model -->
<g id="node4" class="node"><title>\\Comment_model</title>
<a xlink:href="models.comment_model.html" xlink:title="Comment_model" target="_parent">
<polygon fill="none" stroke="black" points="335,-700 231,-700 231,-664 335,-664 335,-700"/>
<text text-anchor="middle" x="283" y="-679.1" font-family="Courier,monospace" font-size="11.00">Comment_model</text>
</a>
</g>
<!-- \\Comment_model&#45;&gt;CI_Model -->
<g id="edge7" class="edge"><title>\\Comment_model&#45;&gt;CI_Model</title>
<path fill="none" stroke="black" d="M230.765,-668.374C199.856,-660.31 160.787,-650.118 129.636,-641.992"/>
<polygon fill="none" stroke="black" points="130.38,-638.569 119.82,-639.431 128.613,-645.342 130.38,-638.569"/>
</g>
<!-- \\Field_model -->
<g id="node5" class="node"><title>\\Field_model</title>
<a xlink:href="models.field_model.html" xlink:title="Field_model" target="_parent">
<polygon fill="none" stroke="black" points="328,-646 238,-646 238,-610 328,-610 328,-646"/>
<text text-anchor="middle" x="283" y="-625.1" font-family="Courier,monospace" font-size="11.00">Field_model</text>
</a>
</g>
<!-- \\Field_model&#45;&gt;CI_Model -->
<g id="edge9" class="edge"><title>\\Field_model&#45;&gt;CI_Model</title>
<path fill="none" stroke="black" d="M237.317,-628C209.505,-628 173.492,-628 142.551,-628"/>
<polygon fill="none" stroke="black" points="142.271,-624.5 132.271,-628 142.271,-631.5 142.271,-624.5"/>
</g>
<!-- \\Question_model -->
<g id="node6" class="node"><title>\\Question_model</title>
<a xlink:href="models.question_model.html" xlink:title="Question_model" target="_parent">
<polygon fill="none" stroke="black" points="338,-592 228,-592 228,-556 338,-556 338,-592"/>
<text text-anchor="middle" x="283" y="-571.1" font-family="Courier,monospace" font-size="11.00">Question_model</text>
</a>
</g>
<!-- \\Question_model&#45;&gt;CI_Model -->
<g id="edge11" class="edge"><title>\\Question_model&#45;&gt;CI_Model</title>
<path fill="none" stroke="black" d="M227.255,-588.542C196.917,-596.457 159.566,-606.2 129.572,-614.025"/>
<polygon fill="none" stroke="black" points="128.495,-610.688 119.703,-616.599 130.262,-617.462 128.495,-610.688"/>
</g>
<!-- \\Vote_model -->
<g id="node7" class="node"><title>\\Vote_model</title>
<a xlink:href="models.vote_model.html" xlink:title="Vote_model" target="_parent">
<polygon fill="none" stroke="black" points="325,-538 241,-538 241,-502 325,-502 325,-538"/>
<text text-anchor="middle" x="283" y="-517.1" font-family="Courier,monospace" font-size="11.00">Vote_model</text>
</a>
</g>
<!-- \\Vote_model&#45;&gt;CI_Model -->
<g id="edge13" class="edge"><title>\\Vote_model&#45;&gt;CI_Model</title>
<path fill="none" stroke="black" d="M240.784,-535.953C232.475,-539.389 223.89,-543.152 216,-547 178.765,-565.161 137.95,-589.292 110.048,-606.48"/>
<polygon fill="none" stroke="black" points="108.119,-603.557 101.463,-611.8 111.807,-609.507 108.119,-603.557"/>
</g>
<!-- \\User_model -->
<g id="node8" class="node"><title>\\User_model</title>
<a xlink:href="models.user_model.html" xlink:title="User_model" target="_parent">
<polygon fill="none" stroke="black" points="325,-484 241,-484 241,-448 325,-448 325,-484"/>
<text text-anchor="middle" x="283" y="-463.1" font-family="Courier,monospace" font-size="11.00">User_model</text>
</a>
</g>
<!-- \\User_model&#45;&gt;CI_Model -->
<g id="edge15" class="edge"><title>\\User_model&#45;&gt;CI_Model</title>
<path fill="none" stroke="black" d="M240.661,-480.182C232.191,-483.804 223.577,-488.088 216,-493 168.089,-524.059 122.387,-572.99 96.8812,-602.631"/>
<polygon fill="none" stroke="black" points="94.0462,-600.562 90.2376,-610.448 99.3803,-605.095 94.0462,-600.562"/>
</g>
<!-- \\Edit -->
<g id="node9" class="node"><title>\\Edit</title>
<a xlink:href="controllers.edit.html" xlink:title="Edit" target="_parent">
<polygon fill="none" stroke="black" points="310,-430 256,-430 256,-394 310,-394 310,-430"/>
<text text-anchor="middle" x="283" y="-409.1" font-family="Courier,monospace" font-size="11.00">Edit</text>
</a>
</g>
<!-- CI_Controller -->
<g id="node26" class="node"><title>CI_Controller</title>
<ellipse fill="none" stroke="black" cx="76" cy="-277" rx="75.1594" ry="18.3848"/>
<text text-anchor="middle" x="76" y="-273.4" font-family="Times Roman,serif" font-size="14.00" fill="gray">CI_Controller</text>
</g>
<!-- \\Edit&#45;&gt;CI_Controller -->
<g id="edge17" class="edge"><title>\\Edit&#45;&gt;CI_Controller</title>
<path fill="none" stroke="black" d="M255.804,-402.973C243.307,-398.343 228.515,-392.167 216,-385 173.571,-360.702 129.744,-324.832 102.683,-301.196"/>
<polygon fill="none" stroke="black" points="104.992,-298.566 95.177,-294.577 100.362,-303.816 104.992,-298.566"/>
</g>
<!-- \\User -->
<g id="node10" class="node"><title>\\User</title>
<a xlink:href="controllers.user.html" xlink:title="User" target="_parent">
<polygon fill="none" stroke="black" points="310,-376 256,-376 256,-340 310,-340 310,-376"/>
<text text-anchor="middle" x="283" y="-355.1" font-family="Courier,monospace" font-size="11.00">User</text>
</a>
</g>
<!-- \\User&#45;&gt;CI_Controller -->
<g id="edge19" class="edge"><title>\\User&#45;&gt;CI_Controller</title>
<path fill="none" stroke="black" d="M255.938,-347.411C222.762,-334.429 165.912,-312.183 124.981,-296.166"/>
<polygon fill="none" stroke="black" points="126.052,-292.827 115.464,-292.443 123.501,-299.346 126.052,-292.827"/>
</g>
<!-- \\Main -->
<g id="node11" class="node"><title>\\Main</title>
<a xlink:href="controllers.main.html" xlink:title="Main" target="_parent">
<polygon fill="none" stroke="black" points="310,-322 256,-322 256,-286 310,-286 310,-322"/>
<text text-anchor="middle" x="283" y="-301.1" font-family="Courier,monospace" font-size="11.00">Main</text>
</a>
</g>
<!-- \\Main&#45;&gt;CI_Controller -->
<g id="edge21" class="edge"><title>\\Main&#45;&gt;CI_Controller</title>
<path fill="none" stroke="black" d="M255.938,-300.47C229.693,-297.047 188.633,-291.691 152.358,-286.96"/>
<polygon fill="none" stroke="black" points="152.639,-283.467 142.27,-285.644 151.733,-290.408 152.639,-283.467"/>
</g>
<!-- \\Util -->
<g id="node12" class="node"><title>\\Util</title>
<a xlink:href="controllers.util.html" xlink:title="Util" target="_parent">
<polygon fill="none" stroke="black" points="310,-268 256,-268 256,-232 310,-232 310,-268"/>
<text text-anchor="middle" x="283" y="-247.1" font-family="Courier,monospace" font-size="11.00">Util</text>
</a>
</g>
<!-- \\Util&#45;&gt;CI_Controller -->
<g id="edge23" class="edge"><title>\\Util&#45;&gt;CI_Controller</title>
<path fill="none" stroke="black" d="M255.938,-253.53C229.693,-256.953 188.633,-262.309 152.358,-267.04"/>
<polygon fill="none" stroke="black" points="151.733,-263.592 142.27,-268.356 152.639,-270.533 151.733,-263.592"/>
</g>
<!-- \\Test -->
<g id="node13" class="node"><title>\\Test</title>
<a xlink:href="controllers.test.html" xlink:title="Test" target="_parent">
<polygon fill="none" stroke="black" points="310,-214 256,-214 256,-178 310,-178 310,-214"/>
<text text-anchor="middle" x="283" y="-193.1" font-family="Courier,monospace" font-size="11.00">Test</text>
</a>
</g>
<!-- \\Test&#45;&gt;CI_Controller -->
<g id="edge25" class="edge"><title>\\Test&#45;&gt;CI_Controller</title>
<path fill="none" stroke="black" d="M255.938,-206.589C222.762,-219.571 165.912,-241.817 124.981,-257.834"/>
<polygon fill="none" stroke="black" points="123.501,-254.654 115.464,-261.557 126.052,-261.173 123.501,-254.654"/>
</g>
<!-- \\Ajax -->
<g id="node14" class="node"><title>\\Ajax</title>
<a xlink:href="controllers.ajax.html" xlink:title="Ajax" target="_parent">
<polygon fill="none" stroke="black" points="310,-160 256,-160 256,-124 310,-124 310,-160"/>
<text text-anchor="middle" x="283" y="-139.1" font-family="Courier,monospace" font-size="11.00">Ajax</text>
</a>
</g>
<!-- \\Ajax&#45;&gt;CI_Controller -->
<g id="edge27" class="edge"><title>\\Ajax&#45;&gt;CI_Controller</title>
<path fill="none" stroke="black" d="M255.804,-151.027C243.307,-155.657 228.515,-161.833 216,-169 173.571,-193.298 129.744,-229.168 102.683,-252.804"/>
<polygon fill="none" stroke="black" points="100.362,-250.184 95.177,-259.423 104.992,-255.434 100.362,-250.184"/>
</g>
<!-- \\Textile -->
<g id="node15" class="node"><title>\\Textile</title>
<a xlink:href="helpers.markdown_helper.html" xlink:title="Textile" target="_parent">
<polygon fill="none" stroke="black" points="315,-106 251,-106 251,-70 315,-70 315,-106"/>
<text text-anchor="middle" x="283" y="-85.1" font-family="Courier,monospace" font-size="11.00">Textile</text>
</a>
</g>
<!-- \\Markdown_Parser -->
<g id="node16" class="node"><title>\\Markdown_Parser</title>
<a xlink:href="helpers.markdown_helper.html" xlink:title="Markdown_Parser" target="_parent">
<polygon fill="none" stroke="black" points="342,-52 224,-52 224,-16 342,-16 342,-52"/>
<text text-anchor="middle" x="283" y="-31.1" font-family="Courier,monospace" font-size="11.00">Markdown_Parser</text>
</a>
</g>
</g>
</svg>
